<svg width="1366" height="197" viewBox="0 0 1366 197" fill="none" xmlns="http://www.w3.org/2000/svg">
<path d="M1365.79 37.5458C1142.52 22.8614 916.077 12.1947 688.202 5.62687C458.444 -0.99774 222.894 -3.32487 0.0124512 14.0718C0.0124512 61.1617 0.0124512 108.256 0.0124512 155.346C122.715 153.201 242.677 147.265 363.259 141.76C386.474 140.758 409.713 139.81 432.976 138.918C479.514 137.134 526.148 135.573 572.864 134.231C666.286 131.551 760.029 129.755 853.856 128.847C1024.57 127.197 1195.65 128.482 1365.83 132.723C1365.89 132.723 1365.95 132.723 1366 132.727C1365.93 100.999 1365.84 69.2702 1365.77 37.5418L1365.79 37.5458Z" fill="url(#paint0_linear_78_85)"/>
<g filter="url(#filter0_d_78_85)">
<path d="M1365.79 43.2218C1142.52 28.5374 916.077 17.8707 688.202 11.3029C458.444 4.67826 222.894 2.35113 0.0124512 19.7478C0.0124512 66.8377 0.0124512 113.932 0.0124512 161.022C122.715 158.877 242.677 152.941 363.259 147.436C386.474 146.434 409.713 145.486 432.976 144.594C479.514 142.81 526.148 141.249 572.864 139.907C666.286 137.227 760.029 135.431 853.856 134.523C1024.57 132.873 1195.65 134.158 1365.83 138.399C1365.89 138.399 1365.95 138.399 1366 138.403C1365.93 106.675 1365.84 74.9462 1365.77 43.2178L1365.79 43.2218Z" fill="url(#paint1_linear_78_85)"/>
</g>
<g filter="url(#filter1_d_78_85)">
<path d="M1365.78 71.1961C1142.52 56.5117 916.077 45.845 688.202 39.2771C458.432 32.6525 222.882 30.3294 0 47.7261C0 94.8161 0 141.91 0 189C122.703 186.855 242.665 180.92 363.246 175.414C386.462 174.413 409.701 173.464 432.964 172.572C479.502 170.788 526.135 169.227 572.852 167.886C666.273 165.206 760.017 163.41 853.844 162.501C1024.56 160.851 1195.64 162.137 1365.82 166.377C1365.88 166.377 1365.94 166.377 1365.99 166.381C1365.92 134.653 1365.83 102.925 1365.76 71.1961H1365.78Z" fill="url(#paint2_linear_78_85)"/>
</g>
<g filter="url(#filter2_dd_78_85)">
<path d="M1365.78 57.4119C1142.52 42.7274 916.077 32.0607 688.202 25.4929C458.432 18.8682 222.882 16.5452 0 33.9419C0 81.0318 0 128.126 0 175.216C122.703 173.071 242.665 167.136 363.246 161.63C386.462 160.629 409.701 159.68 432.964 158.788C479.502 157.004 526.135 155.443 572.852 154.101C666.273 151.421 760.017 149.625 853.844 148.717C1024.56 147.067 1195.64 148.352 1365.82 152.593C1365.88 152.593 1365.94 152.593 1365.99 152.597C1365.92 120.869 1365.83 89.1403 1365.76 57.4119H1365.78Z" fill="url(#paint3_linear_78_85)"/>
</g>
<defs>
<filter id="filter0_d_78_85" x="-3.98755" y="0.367035" width="1373.99" height="162.655" filterUnits="userSpaceOnUse" color-interpolation-filters="sRGB">
<feFlood flood-opacity="0" result="BackgroundImageFix"/>
<feColorMatrix in="SourceAlpha" type="matrix" values="0 0 0 0 0 0 0 0 0 0 0 0 0 0 0 0 0 0 127 0" result="hardAlpha"/>
<feOffset dy="-2"/>
<feGaussianBlur stdDeviation="2"/>
<feComposite in2="hardAlpha" operator="out"/>
<feColorMatrix type="matrix" values="0 0 0 0 0 0 0 0 0 0 0 0 0 0 0 0 0 0 0.25 0"/>
<feBlend mode="normal" in2="BackgroundImageFix" result="effect1_dropShadow_78_85"/>
<feBlend mode="normal" in="SourceGraphic" in2="effect1_dropShadow_78_85" result="shape"/>
</filter>
<filter id="filter1_d_78_85" x="-4" y="34.3429" width="1373.99" height="162.657" filterUnits="userSpaceOnUse" color-interpolation-filters="sRGB">
<feFlood flood-opacity="0" result="BackgroundImageFix"/>
<feColorMatrix in="SourceAlpha" type="matrix" values="0 0 0 0 0 0 0 0 0 0 0 0 0 0 0 0 0 0 127 0" result="hardAlpha"/>
<feOffset dy="4"/>
<feGaussianBlur stdDeviation="2"/>
<feComposite in2="hardAlpha" operator="out"/>
<feColorMatrix type="matrix" values="0 0 0 0 0 0 0 0 0 0 0 0 0 0 0 0 0 0 0.25 0"/>
<feBlend mode="normal" in2="BackgroundImageFix" result="effect1_dropShadow_78_85"/>
<feBlend mode="normal" in="SourceGraphic" in2="effect1_dropShadow_78_85" result="shape"/>
</filter>
<filter id="filter2_dd_78_85" x="-4" y="13.5587" width="1373.99" height="169.657" filterUnits="userSpaceOnUse" color-interpolation-filters="sRGB">
<feFlood flood-opacity="0" result="BackgroundImageFix"/>
<feColorMatrix in="SourceAlpha" type="matrix" values="0 0 0 0 0 0 0 0 0 0 0 0 0 0 0 0 0 0 127 0" result="hardAlpha"/>
<feOffset dy="-3"/>
<feGaussianBlur stdDeviation="2"/>
<feComposite in2="hardAlpha" operator="out"/>
<feColorMatrix type="matrix" values="0 0 0 0 0 0 0 0 0 0 0 0 0 0 0 0 0 0 0.25 0"/>
<feBlend mode="normal" in2="BackgroundImageFix" result="effect1_dropShadow_78_85"/>
<feColorMatrix in="SourceAlpha" type="matrix" values="0 0 0 0 0 0 0 0 0 0 0 0 0 0 0 0 0 0 127 0" result="hardAlpha"/>
<feOffset dy="4"/>
<feGaussianBlur stdDeviation="2"/>
<feComposite in2="hardAlpha" operator="out"/>
<feColorMatrix type="matrix" values="0 0 0 0 0 0 0 0 0 0 0 0 0 0 0 0 0 0 0.25 0"/>
<feBlend mode="normal" in2="effect1_dropShadow_78_85" result="effect2_dropShadow_78_85"/>
<feBlend mode="normal" in="SourceGraphic" in2="effect2_dropShadow_78_85" result="shape"/>
</filter>
<linearGradient id="paint0_linear_78_85" x1="30.6643" y1="78.0192" x2="1396.66" y2="78.0192" gradientUnits="userSpaceOnUse">
<stop stop-color="white"/>
<stop offset="0.3" stop-color="#FCFEFE"/>
<stop offset="0.49" stop-color="#F3FCFE"/>
<stop offset="0.66" stop-color="#E4F8FD"/>
<stop offset="0.8" stop-color="#CFF2FC"/>
<stop offset="0.94" stop-color="#B4EBFA"/>
<stop offset="1" stop-color="#A6E8FA"/>
</linearGradient>
<linearGradient id="paint1_linear_78_85" x1="-33.2732" y1="83.6952" x2="-32.0815" y2="83.6952" gradientUnits="userSpaceOnUse">
<stop stop-color="white"/>
<stop offset="0.3" stop-color="#FCFEFE"/>
<stop offset="0.49" stop-color="#F3FCFE"/>
<stop offset="0.66" stop-color="#E4F8FD"/>
<stop offset="0.8" stop-color="#CFF2FC"/>
<stop offset="0.94" stop-color="#B4EBFA"/>
<stop offset="1" stop-color="#A6E8FA"/>
</linearGradient>
<linearGradient id="paint2_linear_78_85" x1="-33.2738" y1="111.67" x2="-32.082" y2="111.67" gradientUnits="userSpaceOnUse">
<stop stop-color="white"/>
<stop offset="0.3" stop-color="#FCFEFE"/>
<stop offset="0.49" stop-color="#F3FCFE"/>
<stop offset="0.66" stop-color="#E4F8FD"/>
<stop offset="0.8" stop-color="#CFF2FC"/>
<stop offset="0.94" stop-color="#B4EBFA"/>
<stop offset="1" stop-color="#A6E8FA"/>
</linearGradient>
<linearGradient id="paint3_linear_78_85" x1="30.6638" y1="97.8853" x2="1396.66" y2="97.8853" gradientUnits="userSpaceOnUse">
<stop stop-color="#39B5FF"/>
<stop offset="0.28" stop-color="#3AB6FD"/>
<stop offset="0.46" stop-color="#43BAFD"/>
<stop offset="0.61" stop-color="#52C1FD"/>
<stop offset="0.75" stop-color="#67CAFC"/>
<stop offset="0.87" stop-color="#82D7FB"/>
<stop offset="0.99" stop-color="#A3E6FA"/>
<stop offset="1" stop-color="#A6E8FA"/>
</linearGradient>
</defs>
</svg>
