<svg width="22" height="22" viewBox="0 0 22 22" fill="none" xmlns="http://www.w3.org/2000/svg">
<g clip-path="url(#clip0_95_176)">
<path d="M0.511082 22C0.387547 22 0.267368 21.9512 0.178242 21.861C0.0607495 21.7422 0.015431 21.5696 0.0595746 21.4083L1.48979 16.1856C0.599369 14.5755 0.129902 12.754 0.130574 10.905C0.133091 4.89189 5.02649 0 11.0391 0C13.9554 0.00117493 16.6957 1.13716 18.7553 3.19832C20.8146 5.25964 21.9483 7.99974 21.9474 10.9137C21.9447 16.927 17.0513 21.8192 11.0391 21.8192C11.0391 21.8192 11.0346 21.8192 11.0344 21.8192C9.2782 21.8186 7.53713 21.3905 5.9869 20.5798L0.629749 21.9847C0.590473 21.995 0.550525 22 0.511082 22V22Z" fill="#E5E5E5"/>
<path d="M0.510986 21.5317L1.99207 16.1232C1.07848 14.5403 0.597931 12.7446 0.598602 10.905C0.600952 5.15009 5.28422 0.468018 11.039 0.468018C13.8317 0.469193 16.4529 1.55617 18.4241 3.52903C20.3951 5.5019 21.4803 8.12433 21.4793 10.9134C21.4768 16.6682 16.7928 21.351 11.039 21.351C11.0387 21.351 11.0392 21.351 11.039 21.351H11.0345C9.2872 21.3503 7.57046 20.912 6.04557 20.0804L0.510986 21.5317ZM6.30188 18.1909L6.61894 18.3787C7.95097 19.1693 9.47821 19.5874 11.0357 19.5882H11.039C15.8217 19.5882 19.7144 15.6962 19.7164 10.9128C19.7172 8.59463 18.8155 6.41481 17.1772 4.77512C15.5387 3.13543 13.3602 2.23191 11.0422 2.23091C6.25572 2.23091 2.36318 6.12243 2.36133 10.9057C2.36066 12.5449 2.81922 14.1411 3.68799 15.5225L3.89445 15.8508L3.01761 19.052L6.30188 18.1909Z" fill="white"/>
<path d="M0.874023 21.1674L2.30391 15.9458C1.42171 14.4178 0.957947 12.6841 0.95845 10.9084C0.960632 5.35271 5.48191 0.832764 11.0371 0.832764C13.7334 0.833939 16.264 1.88332 18.1666 3.78787C20.0696 5.69243 21.117 8.22406 21.116 10.9163C21.1136 16.4722 16.5922 20.9927 11.0376 20.9927C11.0371 20.9927 11.0378 20.9927 11.0376 20.9927H11.0331C9.34641 20.992 7.68893 20.5687 6.21691 19.7664L0.874023 21.1674Z" fill="#64B161"/>
<path d="M0.510986 21.5317L1.99207 16.1232C1.07848 14.5403 0.597931 12.7446 0.598602 10.905C0.600952 5.15009 5.28422 0.468018 11.039 0.468018C13.8317 0.469193 16.4529 1.55617 18.4241 3.52903C20.3951 5.5019 21.4803 8.12433 21.4793 10.9134C21.4768 16.6682 16.7928 21.351 11.039 21.351C11.0387 21.351 11.0392 21.351 11.039 21.351H11.0345C9.2872 21.3503 7.57046 20.912 6.04557 20.0804L0.510986 21.5317ZM6.30188 18.1909L6.61894 18.3787C7.95097 19.1693 9.47821 19.5874 11.0357 19.5882H11.039C15.8217 19.5882 19.7144 15.6962 19.7164 10.9128C19.7172 8.59463 18.8155 6.41481 17.1772 4.77512C15.5387 3.13543 13.3602 2.23191 11.0422 2.23091C6.25572 2.23091 2.36318 6.12243 2.36133 10.9057C2.36066 12.5449 2.81922 14.1411 3.68799 15.5225L3.89445 15.8508L3.01761 19.052L6.30188 18.1909Z" fill="white"/>
<path fill-rule="evenodd" clip-rule="evenodd" d="M8.42967 6.5416C8.23429 6.10721 8.02851 6.09848 7.84254 6.09093C7.69047 6.08438 7.51641 6.08472 7.34269 6.08472C7.1688 6.08472 6.88615 6.15018 6.64714 6.41118C6.40796 6.67219 5.73389 7.30329 5.73389 8.58682C5.73389 9.87052 6.66879 11.1107 6.79921 11.285C6.92962 11.459 8.60389 14.1772 11.2554 15.2228C13.459 16.092 13.9073 15.9191 14.3857 15.8756C14.8641 15.8321 15.929 15.2445 16.1464 14.6354C16.3639 14.0263 16.3639 13.5043 16.2986 13.395C16.2333 13.2864 16.0595 13.2211 15.7986 13.0907C15.5378 12.9603 14.2553 12.329 14.0161 12.242C13.7769 12.1549 13.603 12.1116 13.4291 12.3728C13.2551 12.6336 12.7556 13.2211 12.6033 13.395C12.4511 13.5694 12.2989 13.5912 12.038 13.4606C11.7772 13.3299 10.937 13.0546 9.94028 12.1658C9.16483 11.4745 8.64115 10.6205 8.48892 10.3593C8.33685 10.0985 8.4864 9.96955 8.60355 9.82705C8.81454 9.57041 9.16852 9.109 9.25547 8.93511C9.34241 8.76088 9.29894 8.60864 9.23382 8.47806C9.16852 8.34764 8.66146 7.05756 8.42967 6.5416V6.5416Z" fill="white"/>
</g>
<defs>
<clipPath id="clip0_95_176">
<rect width="22" height="22" fill="white"/>
</clipPath>
</defs>
</svg>
