<svg width="40" height="40" viewBox="0 0 40 40" fill="none" xmlns="http://www.w3.org/2000/svg">
<path fill-rule="evenodd" clip-rule="evenodd" d="M39.3584 0.641479C38.5031 -0.213831 37.1164 -0.21383 36.2611 0.64148L19.9999 16.9026L3.73877 0.641483C2.88346 -0.213827 1.49672 -0.213827 0.641413 0.641483C-0.213897 1.49679 -0.213896 2.88352 0.641414 3.73883L16.9026 20L0.641559 36.261C-0.213751 37.1163 -0.213751 38.5031 0.641559 39.3584C1.49687 40.2137 2.8836 40.2137 3.73891 39.3584L19.9999 23.0973L36.261 39.3584C37.1163 40.2137 38.503 40.2137 39.3583 39.3584C40.2136 38.5031 40.2136 37.1163 39.3583 36.261L23.0973 20L39.3584 3.73883C40.2138 2.88352 40.2138 1.49679 39.3584 0.641479Z" fill="white"/>
</svg>
