<svg width="18" height="18" viewBox="0 0 18 18" fill="none" xmlns="http://www.w3.org/2000/svg">
<path d="M0 17.2339L1.21179 12.8088C0.46431 11.5136 0.0711366 10.0445 0.0716859 8.53938C0.0736085 3.83079 3.90537 0 8.61384 0C10.8987 0.00096131 13.0434 0.890303 14.6562 2.50447C16.2688 4.11863 17.1567 6.26425 17.1559 8.54625C17.1538 13.2547 13.3215 17.086 8.61384 17.086C8.61357 17.086 8.61398 17.086 8.61384 17.086H8.61013C7.18054 17.0855 5.77593 16.7269 4.5283 16.0465L0 17.2339ZM4.738 14.5005L4.99741 14.6542C6.08726 15.301 7.33682 15.6431 8.61109 15.6438H8.61384C12.5269 15.6438 15.7118 12.4594 15.7135 8.5457C15.7142 6.64905 14.9764 4.86556 13.636 3.52399C12.2954 2.18243 10.513 1.44319 8.61645 1.44236C4.70023 1.44236 1.51543 4.62633 1.51392 8.53993C1.51337 9.88108 1.88855 11.1871 2.59937 12.3173L2.76828 12.5859L2.05088 15.205L4.738 14.5005Z" fill="#39B5FF"/>
<path fill-rule="evenodd" clip-rule="evenodd" d="M6.47889 4.9694C6.31904 4.61399 6.15068 4.60684 5.99852 4.60066C5.8741 4.59531 5.73169 4.59558 5.58955 4.59558C5.44728 4.59558 5.21602 4.64914 5.02046 4.86269C4.82477 5.07624 4.27325 5.5926 4.27325 6.64276C4.27325 7.69306 5.03818 8.70779 5.14488 8.85033C5.25158 8.99275 6.62144 11.2167 8.79082 12.0722C10.5938 12.7833 10.9606 12.6419 11.352 12.6063C11.7434 12.5707 12.6147 12.0899 12.7926 11.5916C12.9706 11.0932 12.9706 10.6661 12.9171 10.5767C12.8637 10.4879 12.7214 10.4344 12.508 10.3277C12.2946 10.221 11.2453 9.70453 11.0496 9.63339C10.8539 9.56211 10.7116 9.52668 10.5694 9.74037C10.427 9.95378 10.0183 10.4344 9.89371 10.5767C9.76915 10.7194 9.6446 10.7372 9.43119 10.6304C9.21778 10.5234 8.53031 10.2982 7.71485 9.57104C7.08039 9.00538 6.65193 8.30665 6.52737 8.09296C6.40295 7.87955 6.52531 7.77408 6.62116 7.65749C6.79379 7.44751 7.08341 7.06999 7.15455 6.92772C7.22569 6.78517 7.19012 6.66061 7.13683 6.55377C7.08341 6.44706 6.66854 5.39155 6.47889 4.9694V4.9694Z" fill="#39B5FF"/>
</svg>
